<svg width="22" height="20" viewBox="0 0 22 20" fill="none" xmlns="http://www.w3.org/2000/svg">
<g clip-path="url(#clip0_2441_269)">
<path d="M3.78614 0.0498047H17.9418V2.86512H21.9671L21.1235 5.68112H20.4092V17.073C20.7674 17.073 21.0582 17.359 21.0582 17.7124V18.4803H21.1881C21.547 18.4803 21.8378 18.767 21.8378 19.1204V19.8883H14.5648V19.1204C14.5648 18.767 14.8556 18.4803 15.2145 18.4803H15.3444V17.7124C15.3444 17.4051 15.5644 17.1486 15.8573 17.0867L15.8435 10.8009C15.6139 8.28949 13.4723 6.32118 10.864 6.32118C8.25558 6.32118 6.11402 8.28949 5.88439 10.8009L5.87064 17.0812C6.21714 17.1321 6.64339 17.3954 6.64339 17.7124V18.4803H6.77333C7.13152 18.4803 7.42233 18.767 7.42233 19.1204V19.8883H0.149957V19.1204C0.149957 18.767 0.440769 18.4803 0.798957 18.4803H0.928894V17.7124C0.928894 17.359 1.21971 17.073 1.57858 17.073V5.68112H0.864269L0.0200195 2.86512H3.78614V0.0498047Z" fill="white"/>
<path d="M17.9415 0.0496797H17.989V0.00292969H17.9415V0.0496797ZM3.78592 0.0496797V0.00292969H3.73848V0.0496797H3.78592ZM17.9415 2.86499H17.8941V2.91174H17.9415V2.86499ZM21.9669 2.86499L22.0129 2.87874L22.0308 2.81824H21.9669V2.86499ZM21.1233 5.68099V5.72774H21.1584L21.1687 5.69405L21.1233 5.68099ZM20.409 5.68099V5.63424H20.3615V5.68099H20.409ZM20.409 17.0729H20.3615V17.1196H20.409V17.0729ZM21.058 18.4802H21.0105V18.5269H21.058V18.4802ZM21.8376 19.8882V19.9349H21.8844V19.8882H21.8376ZM14.5645 19.8882H14.5171V19.9349H14.5645V19.8882ZM15.3442 18.4802V18.5269H15.3916V18.4802H15.3442ZM15.857 17.0866L15.8674 17.132L15.9045 17.1244V17.0866H15.857ZM15.8433 10.8008H15.8907V10.7987L15.89 10.7967L15.8433 10.8008ZM5.88417 10.8008L5.83673 10.7967V10.7987V10.8008H5.88417ZM5.87042 17.0811H5.82298L5.82229 17.1217L5.86285 17.1279L5.87042 17.0811ZM6.64317 18.4802H6.59573V18.5269H6.64317V18.4802ZM7.4221 19.8882V19.9349H7.46954V19.8882H7.4221ZM0.14973 19.8882H0.102293V19.9349H0.14973V19.8882ZM0.928668 18.4802V18.5269H0.976105V18.4802H0.928668ZM1.57836 17.0729V17.1196H1.62579V17.0729H1.57836ZM1.57836 5.68099H1.62579V5.63424H1.57836V5.68099ZM0.864043 5.68099L0.818668 5.69405L0.828293 5.72774H0.864043V5.68099ZM0.019793 2.86499V2.81893H-0.043457L-0.025582 2.87874L0.019793 2.86499ZM3.78592 2.86499V2.91174H3.83336V2.86499H3.78592ZM17.9415 0.00292969H3.78592V0.0957422H17.9415V0.00292969ZM17.989 2.86499V0.0496797H17.8941V2.86499H17.989ZM21.9669 2.81824H17.9415V2.91174H21.9669V2.81824ZM21.1687 5.69405L22.0129 2.87874L21.9215 2.85193L21.0772 5.66793L21.1687 5.69405ZM20.409 5.72774H21.1233V5.63424H20.409V5.72774ZM20.4564 17.0729V5.68099H20.3615V17.0729H20.4564ZM21.1054 17.7122C21.1054 17.3334 20.7933 17.0261 20.409 17.0261V17.1196C20.741 17.1196 21.0105 17.385 21.0105 17.7122H21.1054ZM21.1054 18.4802V17.7122H21.0105V18.4802H21.1054ZM21.1879 18.4341H21.058V18.5269H21.1879V18.4341ZM21.8844 19.1202C21.8844 18.7414 21.5729 18.4341 21.1879 18.4341V18.5269C21.5207 18.5269 21.7902 18.793 21.7902 19.1202H21.8844ZM21.8844 19.8882V19.1202H21.7902V19.8882H21.8844ZM17.9415 19.9349H21.8376V19.8414H17.9415V19.9349ZM15.8632 19.9349H17.9415V19.8414H15.8632V19.9349ZM14.5645 19.9349H15.8632V19.8414H14.5645V19.9349ZM14.5171 19.1202V19.8882H14.612V19.1202H14.5171ZM15.2142 18.4341C14.8292 18.4341 14.5171 18.7414 14.5171 19.1202H14.612C14.612 18.793 14.8815 18.5269 15.2142 18.5269V18.4341ZM15.3442 18.4341H15.2142V18.5269H15.3442V18.4341ZM15.2967 17.7122V18.4802H15.3916V17.7122H15.2967ZM15.8474 17.0412C15.5325 17.1072 15.2967 17.3829 15.2967 17.7122H15.3916C15.3916 17.4276 15.5951 17.1897 15.8674 17.132L15.8474 17.0412ZM15.7959 10.8008L15.8096 17.0866H15.9045L15.8907 10.8008H15.7959ZM10.8637 6.36781C13.4467 6.36781 15.5683 8.31755 15.7959 10.8049L15.89 10.7967C15.6584 8.26118 13.4969 6.27431 10.8637 6.27431V6.36781ZM5.9316 10.8049C6.15917 8.31755 8.2801 6.36781 10.8637 6.36781V6.27431C8.2306 6.27431 6.0691 8.26118 5.83673 10.7967L5.9316 10.8049ZM5.91785 17.0811L5.9316 10.8008H5.83673L5.82298 17.0811H5.91785ZM6.69061 17.7122C6.69061 17.5328 6.57029 17.3754 6.41492 17.2599C6.25885 17.143 6.0581 17.0619 5.87729 17.0351L5.86285 17.1279C6.02854 17.1526 6.21417 17.2269 6.35785 17.3341C6.50292 17.4421 6.59573 17.5747 6.59573 17.7122H6.69061ZM6.69061 18.4802V17.7122H6.59573V18.4802H6.69061ZM6.7731 18.4341H6.64317V18.5269H6.7731V18.4341ZM7.46954 19.1202C7.46954 18.7414 7.15742 18.4341 6.7731 18.4341V18.5269C7.10517 18.5269 7.37467 18.793 7.37467 19.1202H7.46954ZM7.46954 19.8882V19.1202H7.37467V19.8882H7.46954ZM5.86354 19.9349H7.4221V19.8414H5.86354V19.9349ZM5.7556 19.9349H5.86354V19.8414H5.7556V19.9349ZM3.78592 19.9349H5.7556V19.8414H3.78592V19.9349ZM0.14973 19.9349H3.78592V19.8414H0.14973V19.9349ZM0.102293 19.1202V19.8882H0.197168V19.1202H0.102293ZM0.79873 18.4341C0.414418 18.4341 0.102293 18.7414 0.102293 19.1202H0.197168C0.197168 18.793 0.466668 18.5269 0.79873 18.5269V18.4341ZM0.928668 18.4341H0.79873V18.5269H0.928668V18.4341ZM0.88123 17.7122V18.4802H0.976105V17.7122H0.88123ZM1.57836 17.0261C1.19336 17.0261 0.88123 17.3334 0.88123 17.7122H0.976105C0.976105 17.385 1.24561 17.1196 1.57836 17.1196V17.0261ZM1.53092 5.68099V17.0729H1.62579V5.68099H1.53092ZM0.864043 5.72774H1.57836V5.63424H0.864043V5.72774ZM-0.025582 2.87874L0.818668 5.69405L0.909418 5.66793L0.065168 2.85193L-0.025582 2.87874ZM3.78592 2.81824L0.019793 2.81893V2.91174H3.78592V2.81824ZM3.73848 0.0496797V2.86499H3.83336V0.0496797H3.73848Z" fill="white"/>
</g>
<defs>
<clipPath id="clip0_2441_269">
<rect width="22" height="19.9375" fill="white"/>
</clipPath>
</defs>
</svg>
