<svg width="29" height="26" viewBox="0 0 537 480" fill="none" xmlns="http://www.w3.org/2000/svg">
<path fill-rule="evenodd" clip-rule="evenodd" d="M536.669 158.372C536.742 158.53 536.742 158.921 536.742 159.202L536.853 160.375C536.853 160.526 536.837 160.735 536.821 160.963C536.801 161.233 536.779 161.528 536.779 161.78C536.731 162.39 536.628 162.995 536.473 163.587C536.265 164.458 535.969 165.305 535.59 166.116L535.394 166.604L534.978 167.63L534.144 169.609C533.58 170.904 533.004 172.211 532.428 173.433C531.264 175.875 530.038 178.318 528.813 180.761C526.304 185.598 523.653 190.346 520.858 195.004C515.268 204.268 509.129 213.193 502.474 221.73C489.151 238.882 473.861 254.423 456.917 268.036C453.274 271.042 449.475 273.837 445.671 276.635C445.085 277.067 444.499 277.498 443.913 277.93C442.327 279.048 440.715 280.141 439.101 281.236C438.458 281.672 437.815 282.109 437.172 282.547C436.785 282.807 436.4 283.071 436.014 283.336C435.275 283.842 434.534 284.35 433.777 284.832L430.308 286.994C421.076 292.815 411.512 298.096 401.665 302.812C388.765 308.916 375.46 314.132 361.844 318.422C345.543 324.2 323.776 325.422 308.921 325.299C291.971 325.153 278.133 321.415 264.296 315.735C250.137 310.031 237.479 301.168 227.294 289.828C216.688 278.043 209.572 263.556 206.74 247.98C205.347 240.018 205.19 231.889 206.274 223.88C207.386 215.792 209.786 207.932 213.383 200.598C220.667 185.794 232.483 173.681 247.125 166.006C254.427 162.169 262.283 159.486 270.412 158.054C274.457 157.344 278.546 156.956 282.639 156.891V190.8C280.385 190.777 278.129 190.928 275.891 191.254C271.207 191.951 266.659 193.364 262.409 195.444C255.944 198.576 250.325 203.204 246.021 208.941C241.716 214.679 238.85 221.358 237.663 228.424C236.87 233.229 236.825 238.128 237.528 242.947C239.107 253.004 243.451 262.429 250.079 270.174C257.061 278.349 265.827 284.825 275.707 289.107C285.905 293.575 296.889 295.991 308.027 296.216H310.613C332.257 296.143 364.97 290.756 381.7 276.599C399.414 261.718 410.928 240.793 413.995 217.907C415.518 206.407 414.991 194.729 412.439 183.412C409.81 171.94 405.336 160.968 399.189 150.921C392.954 140.731 385.262 131.501 376.356 123.523C367.346 115.442 357.323 108.56 346.536 103.051C324.547 91.951 300.293 86.0335 275.645 85.7546C250.751 85.3925 226.061 90.2837 203.198 100.107C191.729 104.997 180.806 111.072 170.608 118.234C160.38 125.431 150.933 133.672 142.419 142.822C125.286 161.244 112.328 183.123 104.424 206.974C96.5225 230.973 93.7789 256.36 96.3717 281.485C99.0226 306.793 106.569 331.349 118.592 353.797C124.583 365.068 131.555 375.793 139.428 385.848C147.347 395.91 156.083 405.307 165.547 413.942C184.585 431.324 206.15 445.738 229.512 456.694C252.956 467.723 277.781 475.562 303.32 480C277.555 476.249 252.413 469.063 228.569 458.636C204.616 448.181 182.386 434.18 162.63 417.106C152.736 408.539 143.562 399.179 135.2 389.122C126.826 379.015 119.358 368.196 112.881 356.789C99.7692 333.839 91.2489 308.572 87.7923 282.389C84.3362 255.995 86.4952 229.171 94.1288 203.664C101.854 178.007 115.016 154.301 132.724 134.15C150.573 113.842 172.511 97.5066 197.111 86.2055C221.712 74.9044 248.424 68.8909 275.511 68.5561C302.954 68.1332 330.128 74.0051 354.932 85.7179C379.739 97.5541 401.923 115.803 417.206 139.463C424.91 151.335 430.638 164.369 434.169 178.062C437.698 191.936 438.739 206.322 437.245 220.557C436.138 230.981 433.623 241.207 429.769 250.96C432.796 248.908 435.799 246.844 438.704 244.62C454.41 232.977 468.696 219.544 481.27 204.592C487.583 197.121 493.444 189.282 498.821 181.116C501.53 177.036 503.981 172.883 506.433 168.669C507.609 166.568 508.761 164.442 509.852 162.329L511.237 159.52C511.167 159.38 511.096 159.238 511.025 159.095C510.771 158.585 510.507 158.053 510.22 157.529C508.872 154.988 507.303 152.35 505.66 149.748C502.351 144.532 498.699 139.378 494.863 134.321C487.111 124.176 478.741 114.516 469.798 105.396C451.838 87.0011 431.776 70.7668 410.024 57.0253C388.237 43.2508 364.723 32.4001 340.089 24.7538C315.34 17.1302 289.653 12.9499 263.757 12.3313C260.513 12.2093 257.293 12.2701 254.062 12.3311L254.05 12.3313C253.135 12.3485 252.22 12.3531 251.304 12.3577C248.98 12.3693 246.655 12.3809 244.343 12.6L234.648 13.2596C233.387 13.3167 232.134 13.4777 230.882 13.6385C230.527 13.684 230.173 13.7295 229.819 13.7726L224.99 14.3834C220.387 14.8351 215.847 15.6823 211.307 16.5294C209.463 16.8733 207.62 17.2173 205.772 17.5348C203.796 17.9681 201.825 18.4393 199.856 18.91C198.662 19.1956 197.467 19.4811 196.273 19.7579C195.648 19.9125 195.02 20.0595 194.393 20.2064C193.435 20.4308 192.478 20.6551 191.53 20.9061L186.836 22.2741C174.271 25.865 161.983 30.3554 150.067 35.7104C138.075 41.0013 126.443 47.0688 115.246 53.8739C109.584 57.1841 104.118 60.7875 98.6391 64.4519L90.5377 70.1318C88.7661 71.3814 87.0373 72.6895 85.3054 73.9999C84.4132 74.675 83.5202 75.3507 82.6201 76.0193C72.1613 83.9671 62.0989 92.4401 52.4327 101.438C42.7665 110.437 33.5375 119.862 24.7456 129.716C20.3578 134.638 16.0558 139.634 11.9254 144.825C7.79504 150.017 3.75044 155.257 0 160.705C3.54209 155.086 7.36607 149.724 11.3126 144.398C15.2592 139.072 19.3528 133.881 23.569 128.763C32.0177 118.551 40.9117 108.735 50.251 99.313C59.5904 89.8913 69.3955 80.9338 79.6663 72.4404C80.4978 71.7688 81.3256 71.0908 82.1536 70.4127C83.9007 68.9818 85.649 67.5499 87.4368 66.1742L95.3912 60.0668C100.809 56.1825 106.214 52.3226 111.839 48.6582C123.01 41.2772 134.649 34.6265 146.684 28.748C158.73 22.7759 171.195 17.6812 183.98 13.5039L188.772 11.9038C189.725 11.6225 190.669 11.3615 191.607 11.1021C192.299 10.9109 192.988 10.7205 193.675 10.5235C194.974 10.172 196.265 9.81103 197.551 9.45104C199.528 8.89777 201.497 8.34683 203.48 7.83624C205.343 7.43925 207.204 7.0169 209.066 6.59427C213.792 5.52146 218.526 4.44688 223.335 3.78091L228.348 2.95031C228.799 2.88087 229.251 2.80607 229.702 2.73123C230.918 2.52957 232.136 2.32763 233.361 2.22963L243.472 1.14252C246.596 0.733538 249.751 0.609839 252.899 0.486441C253.135 0.477161 253.372 0.467883 253.608 0.458485C254.796 0.411327 255.986 0.344607 257.177 0.277866C259.378 0.154452 261.581 0.0309675 263.769 0.0309675C290.958 -0.361841 318.071 2.98396 344.342 9.97383C370.689 17.0269 395.988 27.5121 419.584 41.1583C443.221 54.8359 465.163 71.2349 484.959 90.0175C494.923 99.4179 504.296 109.42 513.026 119.968C517.402 125.294 521.618 130.766 525.626 136.568C527.624 139.475 529.573 142.456 531.46 145.68C532.404 147.256 533.323 148.966 534.254 150.921C534.793 152.039 535.272 153.184 535.688 154.353C536.015 155.266 536.277 156.201 536.473 157.15C536.529 157.468 536.578 157.785 536.626 158.092C536.64 158.186 536.655 158.28 536.669 158.372Z" fill="white"/>
</svg>
