<svg width="162" height="41" viewBox="0 0 162 41" fill="none" xmlns="http://www.w3.org/2000/svg">
<path fill-rule="evenodd" clip-rule="evenodd" d="M29.9938 19.8964V19.8964L30 19.9619C30 19.9704 29.9991 19.9821 29.9982 19.9948C29.9971 20.0099 29.9959 20.0264 29.9959 20.0404C29.9932 20.0746 29.9874 20.1084 29.9788 20.1415C29.9671 20.1901 29.9506 20.2374 29.9295 20.2828L29.9185 20.3101L29.8952 20.3674L29.8486 20.478C29.8171 20.5503 29.7849 20.6234 29.7527 20.6916C29.6877 20.8281 29.6192 20.9647 29.5507 21.1012C29.4105 21.3715 29.2624 21.6368 29.1062 21.8971C28.7938 22.4148 28.4508 22.9135 28.0789 23.3905C27.3343 24.349 26.4799 25.2175 25.5331 25.9782C25.3295 26.1462 25.1172 26.3023 24.9047 26.4587C24.8719 26.4828 24.8391 26.5069 24.8064 26.5311C24.7178 26.5936 24.6277 26.6546 24.5375 26.7158C24.5016 26.7402 24.4656 26.7646 24.4297 26.7891C24.4081 26.8036 24.3866 26.8184 24.365 26.8332C24.3237 26.8615 24.2823 26.8898 24.24 26.9167L24.0462 27.0376C23.5302 27.3628 22.9958 27.658 22.4455 27.9215C21.7247 28.2626 20.9812 28.5541 20.2203 28.7938C19.3094 29.1167 18.093 29.185 17.2629 29.1781C16.3157 29.1699 15.5424 28.9611 14.7692 28.6437C13.978 28.3249 13.2706 27.8297 12.7015 27.1959C12.1088 26.5374 11.7112 25.7278 11.5529 24.8574C11.475 24.4125 11.4663 23.9583 11.5269 23.5107C11.589 23.0587 11.7231 22.6195 11.9241 22.2097C12.3311 21.3824 12.9914 20.7055 13.8096 20.2766C14.2177 20.0622 14.6567 19.9123 15.111 19.8323C15.337 19.7926 15.5655 19.7709 15.7943 19.7673V21.6621C15.6683 21.6609 15.5422 21.6693 15.4171 21.6875C15.1554 21.7264 14.9013 21.8054 14.6637 21.9216C14.3025 22.0967 13.9885 22.3553 13.7479 22.6759C13.5074 22.9965 13.3473 23.3698 13.2809 23.7646C13.2366 24.0331 13.2341 24.3069 13.2734 24.5762C13.3616 25.1382 13.6043 25.6648 13.9747 26.0977C14.3649 26.5545 14.8548 26.9164 15.4068 27.1556C15.9767 27.4053 16.5905 27.5403 17.2129 27.5529H17.3574C18.567 27.5488 20.395 27.2478 21.3298 26.4567C22.3197 25.6251 22.9632 24.4558 23.1346 23.1769C23.2197 22.5343 23.1902 21.8817 23.0476 21.2493C22.9007 20.6082 22.6507 19.9951 22.3072 19.4336C21.9588 18.8642 21.5289 18.3484 21.0312 17.9026C20.5278 17.451 19.9676 17.0665 19.3649 16.7586C18.1361 16.1383 16.7807 15.8077 15.4034 15.7921C14.0123 15.7718 12.6326 16.0452 11.355 16.5941C10.714 16.8673 10.1036 17.2069 9.53381 17.607C8.96224 18.0093 8.4343 18.4698 7.95854 18.9811C7.00111 20.0105 6.27702 21.2331 5.83535 22.566C5.3938 23.907 5.24048 25.3257 5.38537 26.7297C5.5335 28.144 5.95518 29.5162 6.62709 30.7706C6.96184 31.4004 7.35145 31.9998 7.79142 32.5617C8.23396 33.124 8.72211 33.649 9.25095 34.1316C10.3148 35.1029 11.5199 35.9084 12.8254 36.5206C14.1355 37.1369 15.5228 37.575 16.9499 37.823C15.5101 37.6134 14.1051 37.2118 12.7727 36.6292C11.4342 36.0449 10.1919 35.2625 9.08794 34.3084C8.53508 33.8297 8.02244 33.3066 7.55513 32.7446C7.0872 32.1798 6.66987 31.5753 6.30793 30.9378C5.57523 29.6554 5.0991 28.2434 4.90594 26.7802C4.71281 25.3053 4.83346 23.8064 5.26003 22.381C5.69172 20.9473 6.42721 19.6226 7.41678 18.4965C8.41419 17.3616 9.64012 16.4488 11.0148 15.8173C12.3895 15.1858 13.8823 14.8497 15.3959 14.831C16.9295 14.8074 18.448 15.1355 19.834 15.79C21.2203 16.4514 22.4599 17.4712 23.314 18.7934C23.7445 19.4568 24.0646 20.1851 24.2619 20.9503C24.4591 21.7256 24.5173 22.5295 24.4338 23.325C24.3719 23.9075 24.2314 24.479 24.016 25.024C24.1852 24.9093 24.353 24.7939 24.5153 24.6697C25.393 24.0191 26.1913 23.2684 26.894 22.4329C27.2468 22.0154 27.5743 21.5773 27.8748 21.121C28.0261 20.893 28.1631 20.6609 28.3001 20.4254C28.3658 20.308 28.4302 20.1892 28.4912 20.0712L28.5686 19.9142C28.5646 19.9064 28.5607 19.8984 28.5567 19.8904C28.5425 19.8619 28.5277 19.8322 28.5117 19.8029C28.4364 19.6609 28.3487 19.5135 28.2569 19.3681C28.072 19.0766 27.8679 18.7886 27.6535 18.506C27.2204 17.9391 26.7526 17.3993 26.2529 16.8897C25.2492 15.8617 24.1282 14.9545 22.9127 14.1866C21.6952 13.4169 20.3812 12.8106 19.0046 12.3833C17.6216 11.9573 16.1862 11.7237 14.7391 11.6891C14.5578 11.6823 14.3779 11.6857 14.1973 11.6891L14.1966 11.6891C14.1455 11.6901 14.0944 11.6903 14.0432 11.6906C13.9133 11.6912 13.7834 11.6919 13.6542 11.7041L13.1124 11.741C13.042 11.7442 12.9719 11.7532 12.902 11.7621C12.8822 11.7647 12.8624 11.7672 12.8426 11.7696L12.5727 11.8038C12.3155 11.829 12.0618 11.8763 11.8081 11.9237C11.7051 11.9429 11.602 11.9621 11.4988 11.9799C11.3884 12.0041 11.2783 12.0304 11.1682 12.0567C11.1015 12.0727 11.0347 12.0886 10.968 12.1041C10.933 12.1127 10.898 12.121 10.8629 12.1292C10.8094 12.1417 10.7559 12.1542 10.7029 12.1683L10.4406 12.2447C9.73848 12.4454 9.05179 12.6963 8.38592 12.9955C7.71579 13.2912 7.0658 13.6303 6.44012 14.0105C6.12369 14.1955 5.81823 14.3969 5.51208 14.6017L5.05936 14.9191C4.96037 14.9889 4.86376 15.062 4.76699 15.1352C4.71713 15.1729 4.66722 15.2107 4.61691 15.2481C4.03246 15.6922 3.47016 16.1657 2.93 16.6685C2.38984 17.1713 1.87412 17.6981 1.38281 18.2487C1.13762 18.5238 0.897219 18.8029 0.666408 19.093C0.435596 19.3831 0.209579 19.6759 0 19.9804C0.197936 19.6664 0.411625 19.3667 0.632163 19.0691C0.852701 18.7715 1.08146 18.4814 1.31706 18.1954C1.78919 17.6248 2.2862 17.0762 2.80809 16.5497C3.32998 16.0232 3.8779 15.5227 4.45185 15.0481C4.49832 15.0105 4.54457 14.9726 4.59085 14.9347C4.68848 14.8548 4.78617 14.7748 4.88608 14.6979L5.33058 14.3566C5.6333 14.1395 5.93535 13.9239 6.24971 13.7191C6.87394 13.3066 7.52436 12.935 8.19689 12.6065C8.87005 12.2727 9.56659 11.988 10.281 11.7546L10.5488 11.6652C10.6021 11.6495 10.6548 11.6349 10.7073 11.6204C10.7459 11.6097 10.7844 11.5991 10.8228 11.5881C10.8954 11.5684 10.9675 11.5483 11.0394 11.5281C11.1499 11.4972 11.2599 11.4664 11.3707 11.4379C11.4748 11.4157 11.5788 11.3921 11.6829 11.3685C11.947 11.3085 12.2115 11.2485 12.4803 11.2113L12.7604 11.1649C12.7856 11.161 12.8108 11.1568 12.836 11.1526C12.904 11.1414 12.9721 11.1301 13.0405 11.1246L13.6055 11.0638C13.7801 11.041 13.9564 11.0341 14.1323 11.0272C14.1455 11.0267 14.1587 11.0261 14.172 11.0256C14.2383 11.023 14.3048 11.0193 14.3714 11.0155C14.4944 11.0086 14.6175 11.0017 14.7397 11.0017C16.2591 10.9798 17.7742 11.1667 19.2423 11.5573C20.7146 11.9515 22.1283 12.5374 23.4469 13.3C24.7677 14.0643 25.9939 14.9807 27.1001 16.0303C27.6569 16.5556 28.1807 17.1145 28.6686 17.704C28.9131 18.0016 29.1487 18.3074 29.3726 18.6316C29.4843 18.7941 29.5932 18.9606 29.6986 19.1408C29.7514 19.2289 29.8027 19.3244 29.8548 19.4336C29.8849 19.4961 29.9116 19.5601 29.9349 19.6254C29.9532 19.6765 29.9678 19.7287 29.9788 19.7817C29.9819 19.7995 29.9847 19.8173 29.9873 19.8344C29.9881 19.8397 29.9889 19.8449 29.9897 19.85C29.9938 19.8589 29.9938 19.8807 29.9938 19.8964Z" fill="white"/>
<path d="M55.938 29H51.648L51.714 28.692L53.518 27.878L56.356 13.27L54.838 12.588L54.904 12.28H59.282L61.812 25.568L69.49 12.28H73.626L73.56 12.588L71.778 13.27L68.94 27.878L70.436 28.692L70.37 29H64.342L64.408 28.692L66.234 27.878L68.676 15.228L60.756 29H59.568L56.972 15.294L54.53 27.878L56.004 28.692L55.938 29ZM78.407 29.242C75.041 29.242 73.809 26.712 73.809 24.358C73.809 20.772 76.757 17.23 80.805 17.23C84.259 17.23 85.359 19.562 85.359 21.74C85.359 25.194 82.499 29.242 78.407 29.242ZM78.869 28.384C80.827 28.384 82.895 24.864 82.895 21.608C82.895 19.628 82.103 18.066 80.431 18.066C78.187 18.066 76.185 21.058 76.185 24.336C76.185 26.536 77.109 28.384 78.869 28.384ZM91.6983 29H86.5503L86.6163 28.692L88.1563 28.098L89.9383 18.924L88.6183 18.352L88.6843 18.066L92.2703 17.56H92.4903L91.9843 20.134H92.0063C92.6003 19.078 93.7883 17.23 95.3283 17.23C96.5383 17.23 96.8023 18.308 96.9343 18.616L94.9323 22.312H94.5143C94.6463 21.916 95.1743 20.464 95.1743 19.716C95.1743 19.21 94.9763 18.902 94.5143 18.902C93.5683 18.902 92.5343 20.178 91.6763 21.762L90.4443 28.076L91.7423 28.692L91.6983 29ZM100.923 33.4H95.7968L95.8408 33.092L97.3808 32.476L100.043 18.924L98.7008 18.352L98.7668 18.044C101.759 17.472 103.233 17.23 104.289 17.23C107.325 17.23 108.997 19.188 108.997 22.158C108.997 25.854 106.489 29.33 103.321 29.33C102.111 29.33 101.231 28.802 100.527 28.054L99.6688 32.476L100.989 33.092L100.923 33.4ZM102.881 28.296C104.795 28.296 106.577 25.568 106.577 22.4C106.577 19.98 105.565 18.088 103.695 18.088C103.365 18.088 102.925 18.154 102.441 18.264L100.681 27.218C101.165 27.812 102.067 28.296 102.881 28.296ZM115.171 29H110.199L110.265 28.692L111.805 28.076L114.797 12.742L113.477 12.192L113.543 11.884L116.953 11.4H117.349L115.765 19.43C116.469 18.506 117.789 17.23 119.725 17.23C121.353 17.23 122.761 18.132 122.299 20.53L120.825 28.076L122.145 28.692L122.079 29H117.107L117.173 28.692L118.537 28.076L119.813 21.52C120.275 19.1 120.011 18.242 118.757 18.242C117.613 18.242 116.271 19.496 115.545 20.618L114.093 28.076L115.237 28.692L115.171 29ZM129.721 29.242C127.015 29.242 125.409 27.46 125.409 24.776C125.409 20.662 128.423 17.23 132.053 17.23C134.649 17.23 136.409 18.814 135.815 21.894L135.661 22.642H128.027L127.983 22.928C127.323 26.228 128.533 28.384 130.777 28.384C132.449 28.384 134.187 27.152 135.419 25.128H135.925C134.693 27.482 132.383 29.242 129.721 29.242ZM128.225 21.85H133.417C133.857 19.628 133.263 18.154 131.723 18.154C130.183 18.154 128.709 19.672 128.225 21.85ZM141.321 29.33C139.671 29.33 138.483 28.472 138.967 25.942L140.331 18.924L139.011 18.352L139.055 18.066L142.487 17.56H142.861L141.321 25.546C140.881 27.79 141.365 28.296 142.179 28.296C143.411 28.296 144.247 27.526 145.303 25.766L146.623 18.924L145.303 18.352L145.347 18.066L148.779 17.56H149.153L147.195 27.658L148.537 28.208L148.471 28.516L145.061 29H144.665L145.039 27.042C144.115 28.516 142.883 29.33 141.321 29.33ZM154.914 29.242C153.088 29.242 151.68 28.516 151.218 27.284L152.604 24.688H153.242C153.11 25.018 152.846 25.92 152.846 26.514C152.846 27.9 153.858 28.34 155.156 28.34C157.004 28.34 158.214 27.394 158.214 26.184C158.214 25.326 157.246 24.886 155.53 24.424C154.496 24.138 152.736 23.39 152.736 21.388C152.736 19.012 154.672 17.23 157.246 17.23C158.852 17.23 160.018 17.912 160.568 18.792L159.336 21.366H158.83C159.38 19.188 158.456 18.066 156.894 18.066C155.442 18.066 154.298 18.946 154.298 20.09C154.298 21.08 155.376 21.498 156.894 22.004C158.566 22.554 159.908 22.95 159.908 24.622C159.908 27.328 157.84 29.242 154.914 29.242Z" fill="#FAFAFA"/>
</svg>
