<svg width="187" height="41" viewBox="0 0 187 41" fill="none" xmlns="http://www.w3.org/2000/svg">
<path fill-rule="evenodd" clip-rule="evenodd" d="M29.9938 18.8964V18.8964L30 18.9619C30 18.9704 29.9991 18.9821 29.9982 18.9948C29.9971 19.0099 29.9959 19.0264 29.9959 19.0404C29.9932 19.0746 29.9874 19.1084 29.9788 19.1415C29.9671 19.1901 29.9506 19.2374 29.9295 19.2828L29.9185 19.3101L29.8952 19.3674L29.8486 19.478C29.8171 19.5503 29.7849 19.6234 29.7527 19.6916C29.6877 19.8281 29.6192 19.9647 29.5507 20.1012C29.4105 20.3715 29.2624 20.6368 29.1062 20.8971C28.7938 21.4148 28.4508 21.9135 28.0789 22.3905C27.3343 23.349 26.4799 24.2175 25.5331 24.9782C25.3295 25.1462 25.1172 25.3023 24.9047 25.4587C24.8719 25.4828 24.8391 25.5069 24.8064 25.5311C24.7178 25.5936 24.6277 25.6546 24.5375 25.7158C24.5016 25.7402 24.4656 25.7646 24.4297 25.7891C24.4081 25.8036 24.3866 25.8184 24.365 25.8332C24.3237 25.8615 24.2823 25.8898 24.24 25.9167L24.0462 26.0376C23.5302 26.3628 22.9958 26.658 22.4455 26.9215C21.7247 27.2626 20.9812 27.5541 20.2203 27.7938C19.3094 28.1167 18.093 28.185 17.2629 28.1781C16.3157 28.1699 15.5424 27.9611 14.7692 27.6437C13.978 27.3249 13.2706 26.8297 12.7015 26.1959C12.1088 25.5374 11.7112 24.7278 11.5529 23.8574C11.475 23.4125 11.4663 22.9583 11.5269 22.5107C11.589 22.0587 11.7231 21.6195 11.9241 21.2097C12.3311 20.3824 12.9914 19.7055 13.8096 19.2766C14.2177 19.0622 14.6567 18.9123 15.111 18.8323C15.337 18.7926 15.5655 18.7709 15.7943 18.7673V20.6621C15.6683 20.6609 15.5422 20.6693 15.4171 20.6875C15.1554 20.7264 14.9013 20.8054 14.6637 20.9216C14.3025 21.0967 13.9885 21.3553 13.7479 21.6759C13.5074 21.9965 13.3473 22.3698 13.2809 22.7646C13.2366 23.0331 13.2341 23.3069 13.2734 23.5762C13.3616 24.1382 13.6043 24.6648 13.9747 25.0977C14.3649 25.5545 14.8548 25.9164 15.4068 26.1556C15.9767 26.4053 16.5905 26.5403 17.2129 26.5529H17.3574C18.567 26.5488 20.395 26.2478 21.3298 25.4567C22.3197 24.6251 22.9632 23.4558 23.1346 22.1769C23.2197 21.5343 23.1902 20.8817 23.0476 20.2493C22.9007 19.6082 22.6507 18.9951 22.3072 18.4336C21.9588 17.8642 21.5289 17.3484 21.0312 16.9026C20.5278 16.451 19.9676 16.0665 19.3649 15.7586C18.1361 15.1383 16.7807 14.8077 15.4034 14.7921C14.0123 14.7718 12.6326 15.0452 11.355 15.5941C10.714 15.8673 10.1036 16.2069 9.53381 16.607C8.96224 17.0093 8.4343 17.4698 7.95854 17.9811C7.00111 19.0105 6.27702 20.2331 5.83535 21.566C5.3938 22.907 5.24048 24.3257 5.38537 25.7297C5.5335 27.144 5.95518 28.5162 6.62709 29.7706C6.96184 30.4004 7.35145 30.9998 7.79142 31.5617C8.23396 32.124 8.72211 32.649 9.25095 33.1316C10.3148 34.1029 11.5199 34.9084 12.8254 35.5206C14.1355 36.1369 15.5228 36.575 16.9499 36.823C15.5101 36.6134 14.1051 36.2118 12.7727 35.6292C11.4342 35.0449 10.1919 34.2625 9.08794 33.3084C8.53508 32.8297 8.02244 32.3066 7.55513 31.7446C7.0872 31.1798 6.66987 30.5753 6.30793 29.9378C5.57523 28.6554 5.0991 27.2434 4.90594 25.7802C4.71281 24.3053 4.83346 22.8064 5.26003 21.381C5.69172 19.9473 6.42721 18.6226 7.41678 17.4965C8.41419 16.3616 9.64012 15.4488 11.0148 14.8173C12.3895 14.1858 13.8823 13.8497 15.3959 13.831C16.9295 13.8074 18.448 14.1355 19.834 14.79C21.2203 15.4514 22.4599 16.4712 23.314 17.7934C23.7445 18.4568 24.0646 19.1851 24.2619 19.9503C24.4591 20.7256 24.5173 21.5295 24.4338 22.325C24.3719 22.9075 24.2314 23.479 24.016 24.024C24.1852 23.9093 24.353 23.7939 24.5153 23.6697C25.393 23.0191 26.1913 22.2684 26.894 21.4329C27.2468 21.0154 27.5743 20.5773 27.8748 20.121C28.0261 19.893 28.1631 19.6609 28.3001 19.4254C28.3658 19.308 28.4302 19.1892 28.4912 19.0712L28.5686 18.9142C28.5646 18.9064 28.5607 18.8984 28.5567 18.8904C28.5425 18.8619 28.5277 18.8322 28.5117 18.8029C28.4364 18.6609 28.3487 18.5135 28.2569 18.3681C28.072 18.0766 27.8679 17.7886 27.6535 17.506C27.2204 16.9391 26.7526 16.3993 26.2529 15.8897C25.2492 14.8617 24.1282 13.9545 22.9127 13.1866C21.6952 12.4169 20.3812 11.8106 19.0046 11.3833C17.6216 10.9573 16.1862 10.7237 14.7391 10.6891C14.5578 10.6823 14.3779 10.6857 14.1973 10.6891L14.1966 10.6891C14.1455 10.6901 14.0944 10.6903 14.0432 10.6906C13.9133 10.6912 13.7834 10.6919 13.6542 10.7041L13.1124 10.741C13.042 10.7442 12.9719 10.7532 12.902 10.7621C12.8822 10.7647 12.8624 10.7672 12.8426 10.7696L12.5727 10.8038C12.3155 10.829 12.0618 10.8763 11.8081 10.9237C11.7051 10.9429 11.602 10.9621 11.4988 10.9799C11.3884 11.0041 11.2783 11.0304 11.1682 11.0567C11.1015 11.0727 11.0347 11.0886 10.968 11.1041C10.933 11.1127 10.898 11.121 10.8629 11.1292C10.8094 11.1417 10.7559 11.1542 10.7029 11.1683L10.4406 11.2447C9.73848 11.4454 9.05179 11.6963 8.38592 11.9955C7.71579 12.2912 7.0658 12.6303 6.44012 13.0105C6.12369 13.1955 5.81823 13.3969 5.51208 13.6017L5.05936 13.9191C4.96037 13.9889 4.86376 14.062 4.76699 14.1352C4.71713 14.1729 4.66722 14.2107 4.61691 14.2481C4.03246 14.6922 3.47016 15.1657 2.93 15.6685C2.38984 16.1713 1.87412 16.6981 1.38281 17.2487C1.13762 17.5238 0.897219 17.8029 0.666408 18.093C0.435596 18.3831 0.209579 18.6759 0 18.9804C0.197936 18.6664 0.411625 18.3667 0.632163 18.0691C0.852701 17.7715 1.08146 17.4814 1.31706 17.1954C1.78919 16.6248 2.2862 16.0762 2.80809 15.5497C3.32998 15.0232 3.8779 14.5227 4.45185 14.0481C4.49832 14.0105 4.54457 13.9726 4.59085 13.9347C4.68848 13.8548 4.78617 13.7748 4.88608 13.6979L5.33058 13.3566C5.6333 13.1395 5.93535 12.9239 6.24971 12.7191C6.87394 12.3066 7.52436 11.935 8.19689 11.6065C8.87005 11.2727 9.56659 10.988 10.281 10.7546L10.5488 10.6652C10.6021 10.6495 10.6548 10.6349 10.7073 10.6204C10.7459 10.6097 10.7844 10.5991 10.8228 10.5881C10.8954 10.5684 10.9675 10.5483 11.0394 10.5281C11.1499 10.4972 11.2599 10.4664 11.3707 10.4379C11.4748 10.4157 11.5788 10.3921 11.6829 10.3685C11.947 10.3085 12.2115 10.2485 12.4803 10.2113L12.7604 10.1649C12.7856 10.161 12.8108 10.1568 12.836 10.1526C12.904 10.1414 12.9721 10.1301 13.0405 10.1246L13.6055 10.0638C13.7801 10.041 13.9564 10.0341 14.1323 10.0272C14.1455 10.0267 14.1587 10.0261 14.172 10.0256C14.2383 10.023 14.3048 10.0193 14.3714 10.0155C14.4944 10.0086 14.6175 10.0017 14.7397 10.0017C16.2591 9.97978 17.7742 10.1667 19.2423 10.5573C20.7146 10.9515 22.1283 11.5374 23.4469 12.3C24.7677 13.0643 25.9939 13.9807 27.1001 15.0303C27.6569 15.5556 28.1807 16.1145 28.6686 16.704C28.9131 17.0016 29.1487 17.3074 29.3726 17.6316C29.4843 17.7941 29.5932 17.9606 29.6986 18.1408C29.7514 18.2289 29.8027 18.3244 29.8548 18.4336C29.8849 18.4961 29.9116 18.5601 29.9349 18.6254C29.9532 18.6765 29.9678 18.7287 29.9788 18.7817C29.9819 18.7995 29.9847 18.8173 29.9873 18.8344C29.9881 18.8397 29.9889 18.8449 29.9897 18.85C29.9938 18.8589 29.9938 18.8807 29.9938 18.8964Z" fill="white"/>
<path d="M53.012 32H47.552L47.636 31.608L49.932 30.572L53.544 11.98L51.612 11.112L51.696 10.72H57.268L60.488 27.632L70.26 10.72H75.524L75.44 11.112L73.172 11.98L69.56 30.572L71.464 31.608L71.38 32H63.708L63.792 31.608L66.116 30.572L69.224 14.472L59.144 32H57.632L54.328 14.556L51.22 30.572L53.096 31.608L53.012 32ZM81.609 32.308C77.325 32.308 75.757 29.088 75.757 26.092C75.757 21.528 79.509 17.02 84.661 17.02C89.057 17.02 90.457 19.988 90.457 22.76C90.457 27.156 86.817 32.308 81.609 32.308ZM82.197 31.216C84.689 31.216 87.321 26.736 87.321 22.592C87.321 20.072 86.313 18.084 84.185 18.084C81.329 18.084 78.781 21.892 78.781 26.064C78.781 28.864 79.957 31.216 82.197 31.216ZM98.5251 32H91.9731L92.0571 31.608L94.0171 30.852L96.2851 19.176L94.6051 18.448L94.6891 18.084L99.2531 17.44H99.5331L98.8891 20.716H98.9171C99.6731 19.372 101.185 17.02 103.145 17.02C104.685 17.02 105.021 18.392 105.189 18.784L102.641 23.488H102.109C102.277 22.984 102.949 21.136 102.949 20.184C102.949 19.54 102.697 19.148 102.109 19.148C100.905 19.148 99.5891 20.772 98.4971 22.788L96.9291 30.824L98.5811 31.608L98.5251 32ZM110.265 37.6H103.741L103.797 37.208L105.757 36.424L109.145 19.176L107.437 18.448L107.521 18.056C111.329 17.328 113.205 17.02 114.549 17.02C118.413 17.02 120.541 19.512 120.541 23.292C120.541 27.996 117.349 32.42 113.317 32.42C111.777 32.42 110.657 31.748 109.761 30.796L108.669 36.424L110.349 37.208L110.265 37.6ZM112.757 31.104C115.193 31.104 117.461 27.632 117.461 23.6C117.461 20.52 116.173 18.112 113.793 18.112C113.373 18.112 112.813 18.196 112.197 18.336L109.957 29.732C110.573 30.488 111.721 31.104 112.757 31.104ZM128.399 32H122.071L122.155 31.608L124.115 30.824L127.923 11.308L126.243 10.608L126.327 10.216L130.667 9.6H131.171L129.155 19.82C130.051 18.644 131.731 17.02 134.195 17.02C136.267 17.02 138.059 18.168 137.471 21.22L135.595 30.824L137.275 31.608L137.191 32H130.863L130.947 31.608L132.683 30.824L134.307 22.48C134.895 19.4 134.559 18.308 132.963 18.308C131.507 18.308 129.799 19.904 128.875 21.332L127.027 30.824L128.483 31.608L128.399 32ZM146.917 32.308C143.473 32.308 141.429 30.04 141.429 26.624C141.429 21.388 145.265 17.02 149.885 17.02C153.189 17.02 155.429 19.036 154.673 22.956L154.477 23.908H144.761L144.705 24.272C143.865 28.472 145.405 31.216 148.261 31.216C150.389 31.216 152.601 29.648 154.169 27.072H154.813C153.245 30.068 150.305 32.308 146.917 32.308ZM145.013 22.9H151.621C152.181 20.072 151.425 18.196 149.465 18.196C147.505 18.196 145.629 20.128 145.013 22.9ZM161.682 32.42C159.582 32.42 158.07 31.328 158.686 28.108L160.422 19.176L158.742 18.448L158.798 18.084L163.166 17.44H163.642L161.682 27.604C161.122 30.46 161.738 31.104 162.774 31.104C164.342 31.104 165.406 30.124 166.75 27.884L168.43 19.176L166.75 18.448L166.806 18.084L171.174 17.44H171.65L169.158 30.292L170.866 30.992L170.782 31.384L166.442 32H165.938L166.414 29.508C165.238 31.384 163.67 32.42 161.682 32.42ZM178.981 32.308C176.657 32.308 174.865 31.384 174.277 29.816L176.041 26.512H176.853C176.685 26.932 176.349 28.08 176.349 28.836C176.349 30.6 177.637 31.16 179.289 31.16C181.641 31.16 183.181 29.956 183.181 28.416C183.181 27.324 181.949 26.764 179.765 26.176C178.449 25.812 176.209 24.86 176.209 22.312C176.209 19.288 178.673 17.02 181.949 17.02C183.993 17.02 185.477 17.888 186.177 19.008L184.609 22.284H183.965C184.665 19.512 183.489 18.084 181.501 18.084C179.653 18.084 178.197 19.204 178.197 20.66C178.197 21.92 179.569 22.452 181.501 23.096C183.629 23.796 185.337 24.3 185.337 26.428C185.337 29.872 182.705 32.308 178.981 32.308Z" fill="#FAFAFA"/>
</svg>
