<svg width="22" height="22" viewBox="0 0 22 22" fill="none" xmlns="http://www.w3.org/2000/svg">
<g clip-path="url(#clip0_2441_272)">
<path d="M21.9997 10.9998C21.9997 17.0746 17.0746 21.9997 10.9998 21.9997C4.92514 21.9997 0 17.0746 0 10.9998C0 4.92514 4.92514 0 10.9998 0C17.0758 0 21.9997 4.92514 21.9997 10.9998Z" fill="white"/>
<path d="M5.42685 11.3693L5.4743 11.2947L8.3358 6.81826C8.37762 6.75272 8.47594 6.7595 8.50758 6.83069C8.98563 7.90205 9.39812 9.23449 9.20488 10.064C9.12238 10.4053 8.89636 10.8675 8.64206 11.2947C8.6093 11.3569 8.57314 11.4179 8.5347 11.4767C8.51662 11.5038 8.48611 11.5196 8.45333 11.5196H5.51047C5.43136 11.5196 5.38503 11.4337 5.42685 11.3693Z" fill="#0F0F0F"/>
<path d="M18.1815 12.2012V12.9098C18.1815 12.9505 18.1566 12.9866 18.1204 13.0025C17.8989 13.0974 17.1406 13.4455 16.8253 13.884C16.0206 15.0039 15.4059 16.6053 14.0316 16.6053H8.29844C6.26648 16.6053 4.61987 14.9531 4.61987 12.9143V12.8488C4.61987 12.7945 4.66394 12.7505 4.71819 12.7505H7.91422C7.97749 12.7505 8.02382 12.8092 8.01819 12.8714C7.99557 13.0793 8.03401 13.2918 8.13232 13.485C8.32218 13.8704 8.71547 14.1111 9.14039 14.1111H10.7226V12.8759H9.15848C9.07824 12.8759 9.03079 12.7832 9.07712 12.7177C9.09406 12.6917 9.11329 12.6646 9.13362 12.6341C9.28167 12.4239 9.493 12.0972 9.70321 11.7254C9.84674 11.4745 9.98573 11.2067 10.0976 10.9377C10.1202 10.8891 10.1383 10.8394 10.1564 10.7908C10.1869 10.7049 10.2186 10.6247 10.2411 10.5444C10.2638 10.4766 10.2818 10.4054 10.2999 10.3387C10.353 10.1105 10.3756 9.86861 10.3756 9.61772C10.3756 9.51941 10.3711 9.41656 10.3621 9.31824C10.3575 9.21088 10.344 9.1035 10.3304 8.99614C10.3214 8.90122 10.3044 8.80741 10.2864 8.70909C10.2638 8.56557 10.2321 8.42318 10.1959 8.27964L10.1835 8.22541C10.1564 8.12707 10.1338 8.03328 10.1022 7.93497C10.0129 7.62642 9.91003 7.32582 9.80153 7.04442C9.76197 6.93253 9.71676 6.82517 9.67155 6.71781C9.60489 6.5562 9.53707 6.40929 9.47492 6.27027C9.44328 6.20698 9.41616 6.14934 9.38903 6.09058C9.35852 6.0239 9.32688 5.95722 9.29523 5.89395C9.27263 5.84535 9.24663 5.80014 9.22854 5.75493L9.0353 5.39781C9.00817 5.34921 9.05338 5.29157 9.10649 5.30627L10.3157 5.634H10.3191C10.3214 5.634 10.3225 5.63514 10.3236 5.63514L10.483 5.67921L10.6582 5.72895L10.7226 5.74701V5.02826C10.7226 4.6813 11.0006 4.3999 11.3442 4.3999C11.5159 4.3999 11.6719 4.46997 11.7838 4.58411C11.8957 4.69826 11.9657 4.85422 11.9657 5.02826V6.09511L12.0946 6.13126C12.1047 6.13467 12.1149 6.13918 12.1239 6.14595C12.1556 6.16969 12.2008 6.20471 12.2584 6.24768C12.3036 6.28382 12.3522 6.32791 12.411 6.37312C12.5274 6.46691 12.6664 6.58784 12.819 6.72685C12.8597 6.76188 12.8992 6.79805 12.9354 6.83421C13.132 7.01729 13.3524 7.23201 13.5626 7.46934C13.6214 7.53603 13.679 7.60383 13.7378 7.67502C13.7965 7.74735 13.8587 7.81854 13.9129 7.88976C13.9842 7.98469 14.061 8.083 14.1277 8.18585C14.1593 8.23445 14.1955 8.28417 14.226 8.33277C14.3119 8.46272 14.3876 8.59722 14.4599 8.73171C14.4905 8.79386 14.5221 8.86166 14.5492 8.92834C14.6294 9.10803 14.6927 9.29112 14.7334 9.4742C14.7458 9.51375 14.7549 9.5567 14.7594 9.59513V9.60417C14.773 9.6584 14.7775 9.71604 14.782 9.7748C14.8001 9.96242 14.7911 10.15 14.7504 10.3387C14.7334 10.419 14.7108 10.4947 14.6837 10.575C14.6566 10.6518 14.6294 10.732 14.5944 10.8078C14.5266 10.9648 14.4464 11.1219 14.3514 11.2688C14.3209 11.3231 14.2848 11.3807 14.2486 11.435C14.209 11.4926 14.1684 11.5469 14.1322 11.6C14.0825 11.6678 14.0294 11.739 13.9751 11.8023C13.9265 11.869 13.8768 11.9356 13.8225 11.9944C13.7468 12.0837 13.6745 12.1684 13.5988 12.2498C13.5536 12.3029 13.505 12.3572 13.4552 12.4058C13.4067 12.46 13.3569 12.5086 13.3117 12.5538C13.236 12.6295 13.1727 12.6883 13.1196 12.7369L12.9953 12.851C12.9772 12.8669 12.9535 12.8759 12.9286 12.8759H11.9657V14.1111H13.1772C13.4485 14.1111 13.7061 14.0151 13.9141 13.8388C13.9853 13.7766 14.2961 13.5076 14.6633 13.1019C14.6758 13.0884 14.6916 13.0782 14.7097 13.0737L18.056 12.1063C18.1182 12.0882 18.1815 12.1357 18.1815 12.2012Z" fill="#0F0F0F"/>
</g>
<defs>
<clipPath id="clip0_2441_272">
<rect width="22" height="22" fill="white"/>
</clipPath>
</defs>
</svg>
