<svg width="14" height="13" viewBox="0 0 14 13" fill="none" xmlns="http://www.w3.org/2000/svg">
<g clip-path="url(#clip0_2441_297)">
<path d="M0.842152 3.3799L0.468301 2.12901H2.46316H2.71027V1.8819V0.384318H10.9611V1.8819V2.12901H11.2082H13.3633L12.9897 3.3799H12.7325H12.4854V3.62701V10.6867V10.9338H12.7325C12.8202 10.9338 12.8863 11.0033 12.8863 11.083V11.5589V11.806H13.1335H13.2137C13.3017 11.806 13.368 11.8757 13.368 11.9555V12.1843H9.36907V11.9555C9.36907 11.8757 9.43538 11.806 9.52332 11.806H9.60359H9.85071V11.5589V11.083C9.85071 11.0138 9.90044 10.9521 9.97167 10.937L10.168 10.8954L10.1675 10.6947L10.1591 6.79929L10.159 6.78833L10.158 6.7774C10.0045 5.09264 8.57372 3.77656 6.83568 3.77656C5.09764 3.77656 3.66688 5.09264 3.51332 6.7774L3.51233 6.78833L3.51231 6.79929L3.50381 10.6913L3.50334 10.9051L3.71491 10.9363C3.78129 10.9461 3.86213 10.9787 3.92183 11.0234C3.97138 11.0605 3.97998 11.0842 3.9812 11.0871V11.5589V11.806H4.22831H4.30858C4.39592 11.806 4.46241 11.8755 4.46241 11.9555V12.1843H0.463919V11.9555C0.463919 11.8755 0.530403 11.806 0.617746 11.806H0.698018H0.945129V11.5589V11.083C0.945129 11.0035 1.01109 10.9338 1.09938 10.9338H1.34649V10.6867V3.62701V3.3799H1.09938H0.842152Z" stroke="white" stroke-width="0.494222"/>
<path d="M11.2074 0.13737H11.2367V0.108398H11.2074V0.13737ZM2.46232 0.13737V0.108398H2.43302V0.13737H2.46232ZM11.2074 1.88206H11.178V1.91103H11.2074V1.88206ZM13.6941 1.88206L13.7226 1.89058L13.7336 1.85309H13.6941V1.88206ZM13.173 3.62718V3.65615H13.1946L13.201 3.63527L13.173 3.62718ZM12.7317 3.62718V3.5982H12.7024V3.62718H12.7317ZM12.7317 10.6869H12.7024V10.7159H12.7317V10.6869ZM13.1326 11.559H13.1033V11.588H13.1326V11.559ZM13.6143 12.4316V12.4605H13.6431V12.4316H13.6143ZM9.12112 12.4316H9.09181V12.4605H9.12112V12.4316ZM9.60275 11.559V11.588H9.63206V11.559H9.60275ZM9.91959 10.6954L9.92596 10.7235L9.9489 10.7188V10.6954H9.91959ZM9.9111 6.8H9.9404V6.79872L9.93998 6.79744L9.9111 6.8ZM3.75857 6.8L3.72927 6.79744V6.79872V6.8H3.75857ZM3.75008 10.692H3.72077L3.72035 10.7171L3.74541 10.721L3.75008 10.692ZM4.22747 11.559H4.19816V11.588H4.22747V11.559ZM4.70868 12.4316V12.4605H4.73798V12.4316H4.70868ZM0.215966 12.4316H0.18666V12.4605H0.215966V12.4316ZM0.697176 11.559V11.588H0.726482V11.559H0.697176ZM1.09854 10.6869V10.7159H1.12784V10.6869H1.09854ZM1.09854 3.62718H1.12784V3.5982H1.09854V3.62718ZM0.657252 3.62718L0.62922 3.63527L0.635166 3.65615H0.657252V3.62718ZM0.135693 1.88206V1.85351H0.0966187L0.107661 1.89058L0.135693 1.88206ZM2.46232 1.88206V1.91103H2.49163V1.88206H2.46232ZM11.2074 0.108398H2.46232V0.165916H11.2074V0.108398ZM11.2367 1.88206V0.13737H11.178V1.88206H11.2367ZM13.6941 1.85309H11.2074V1.91103H13.6941V1.85309ZM13.201 3.63527L13.7226 1.89058L13.6661 1.87396L13.1445 3.61908L13.201 3.63527ZM12.7317 3.65615H13.173V3.5982H12.7317V3.65615ZM12.761 10.6869V3.62718H12.7024V10.6869H12.761ZM13.1619 11.0831C13.1619 10.8484 12.9691 10.6579 12.7317 10.6579V10.7159C12.9368 10.7159 13.1033 10.8803 13.1033 11.0831H13.1619ZM13.1619 11.559V11.0831H13.1033V11.559H13.1619ZM13.2129 11.5305H13.1326V11.588H13.2129V11.5305ZM13.6431 11.9557C13.6431 11.7209 13.4507 11.5305 13.2129 11.5305V11.588C13.4185 11.588 13.5849 11.7529 13.5849 11.9557H13.6431ZM13.6431 12.4316V11.9557H13.5849V12.4316H13.6431ZM11.2074 12.4605H13.6143V12.4026H11.2074V12.4605ZM9.92342 12.4605H11.2074V12.4026H9.92342V12.4605ZM9.12112 12.4605H9.92342V12.4026H9.12112V12.4605ZM9.09181 11.9557V12.4316H9.15042V11.9557H9.09181ZM9.52248 11.5305C9.28463 11.5305 9.09181 11.7209 9.09181 11.9557H9.15042C9.15042 11.7529 9.31691 11.588 9.52248 11.588V11.5305ZM9.60275 11.5305H9.52248V11.588H9.60275V11.5305ZM9.57344 11.0831V11.559H9.63206V11.0831H9.57344ZM9.91365 10.6673C9.71912 10.7082 9.57344 10.879 9.57344 11.0831H9.63206C9.63206 10.9067 9.75777 10.7593 9.92596 10.7235L9.91365 10.6673ZM9.88179 6.8L9.89029 10.6954H9.9489L9.9404 6.8H9.88179ZM6.83484 4.0528C8.43052 4.0528 9.74121 5.26109 9.88179 6.80255L9.93998 6.79744C9.79685 5.22616 8.46152 3.99486 6.83484 3.99486V4.0528ZM3.78788 6.80255C3.92846 5.26109 5.23873 4.0528 6.83484 4.0528V3.99486C5.20815 3.99486 3.87282 5.22616 3.72927 6.79744L3.78788 6.80255ZM3.77938 10.692L3.78788 6.8H3.72927L3.72077 10.692H3.77938ZM4.25677 11.0831C4.25677 10.9719 4.18245 10.8743 4.08646 10.8028C3.99005 10.7303 3.86603 10.6801 3.75433 10.6635L3.74541 10.721C3.84776 10.7363 3.96244 10.7823 4.05121 10.8488C4.14082 10.9157 4.19816 10.9979 4.19816 11.0831H4.25677ZM4.25677 11.559V11.0831H4.19816V11.559H4.25677ZM4.30774 11.5305H4.22747V11.588H4.30774V11.5305ZM4.73798 11.9557C4.73798 11.7209 4.54516 11.5305 4.30774 11.5305V11.588C4.51288 11.588 4.67937 11.7529 4.67937 11.9557H4.73798ZM4.73798 12.4316V11.9557H4.67937V12.4316H4.73798ZM3.74583 12.4605H4.70868V12.4026H3.74583V12.4605ZM3.67915 12.4605H3.74583V12.4026H3.67915V12.4605ZM2.46232 12.4605H3.67915V12.4026H2.46232V12.4605ZM0.215966 12.4605H2.46232V12.4026H0.215966V12.4605ZM0.18666 11.9557V12.4316H0.245271V11.9557H0.18666ZM0.616903 11.5305C0.379484 11.5305 0.18666 11.7209 0.18666 11.9557H0.245271C0.245271 11.7529 0.411762 11.588 0.616903 11.588V11.5305ZM0.697176 11.5305H0.616903V11.588H0.697176V11.5305ZM0.66787 11.0831V11.559H0.726482V11.0831H0.66787ZM1.09854 10.6579C0.860694 10.6579 0.66787 10.8484 0.66787 11.0831H0.726482C0.726482 10.8803 0.892973 10.7159 1.09854 10.7159V10.6579ZM1.06923 3.62718V10.6869H1.12784V3.62718H1.06923ZM0.657252 3.65615H1.09854V3.5982H0.657252V3.65615ZM0.107661 1.89058L0.62922 3.63527L0.685284 3.61908L0.163725 1.87396L0.107661 1.89058ZM2.46232 1.85309L0.135693 1.85351V1.91103H2.46232V1.85309ZM2.43302 0.13737V1.88206H2.49163V0.13737H2.43302Z" fill="white"/>
</g>
<defs>
<clipPath id="clip0_2441_297">
<rect width="13.5911" height="12.3556" fill="white" transform="translate(0.124451 0.106445)"/>
</clipPath>
</defs>
</svg>
