<svg width="10" height="10" viewBox="0 0 10 10" fill="none" xmlns="http://www.w3.org/2000/svg">
<path d="M9.0146 1.77064C8.9607 1.07503 8.37786 0.525391 7.66868 0.525391H1.35043C0.605801 0.525391 0 1.13119 0 1.87582V8.12395C0 8.86858 0.605801 9.47438 1.35043 9.47438H8.64959C9.39422 9.47438 10 8.86858 10 8.12395V3.07053C10 2.4524 9.58239 1.93033 9.0146 1.77064ZM1.35043 1.15625H7.6687C8.01201 1.15625 8.29972 1.39796 8.3711 1.72012H1.35043C1.08604 1.72012 0.839356 1.79678 0.630857 1.92863V1.87582C0.630857 1.47905 0.953659 1.15625 1.35043 1.15625ZM8.64957 8.84352H1.35043C0.953659 8.84352 0.630857 8.52072 0.630857 8.12395V3.07053C0.630857 2.67376 0.953659 2.35095 1.35043 2.35095H8.64959C9.04636 2.35095 9.36916 2.67376 9.36916 3.07053V4.17133H7.35779C6.56074 4.17133 5.9123 4.81979 5.9123 5.61684C5.9123 6.41389 6.56076 7.06235 7.35779 7.06235H9.36914V8.12395C9.36914 8.52072 9.04634 8.84352 8.64957 8.84352ZM9.36914 6.4315H7.35779C6.9086 6.4315 6.54315 6.06605 6.54315 5.61684C6.54315 5.16763 6.9086 4.80219 7.35779 4.80219H9.36914V6.4315Z" fill="#B1B5C4"/>
</svg>
