<svg width="192" height="24" viewBox="0 0 192 24" fill="none" xmlns="http://www.w3.org/2000/svg">
<rect width="192" height="24" rx="11.5676" fill="#151515"/>
<path d="M8.8335 11.7917C8.8335 11.006 8.8335 10.6132 9.07757 10.3691C9.32165 10.125 9.71449 10.125 10.5002 10.125H14.5002C15.2858 10.125 15.6787 10.125 15.9228 10.3691C16.1668 10.6132 16.1668 11.006 16.1668 11.7917V13.125C16.1668 14.3035 16.1668 14.8928 15.8007 15.2589C15.4346 15.625 14.8453 15.625 13.6668 15.625H11.3335C10.155 15.625 9.56573 15.625 9.19961 15.2589C8.8335 14.8928 8.8335 14.3035 8.8335 13.125V11.7917Z" stroke="#898A8B" stroke-width="0.833333"/>
<path d="M14.3337 9.66667V9.20833C14.3337 8.19581 13.5128 7.375 12.5003 7.375V7.375C11.4878 7.375 10.667 8.19581 10.667 9.20833V9.66667" stroke="#898A8B" stroke-width="0.833333" stroke-linecap="round"/>
</svg>
